<svg width="36" height="46" viewBox="0 0 36 46" fill="none" xmlns="http://www.w3.org/2000/svg">
<path d="M18.3335 20.5C20.3113 20.5 22.2447 19.9135 23.8892 18.8147C25.5337 17.7159 26.8154 16.1541 27.5723 14.3268C28.3292 12.4996 28.5272 10.4889 28.1413 8.5491C27.7555 6.60929 26.8031 4.82746 25.4046 3.42894C24.006 2.03041 22.2242 1.078 20.2844 0.692152C18.3446 0.306299 16.3339 0.504333 14.5067 1.26121C12.6794 2.01809 11.1176 3.29981 10.0188 4.9443C8.91999 6.58879 8.3335 8.52219 8.3335 10.5C8.3335 13.1522 9.38706 15.6957 11.2624 17.5711C13.1378 19.4464 15.6813 20.5 18.3335 20.5ZM33.3335 45.5C33.9965 45.5 34.6324 45.2366 35.1013 44.7678C35.5701 44.2989 35.8335 43.663 35.8335 43C35.8335 38.3587 33.9897 33.9075 30.7079 30.6256C27.426 27.3438 22.9748 25.5 18.3335 25.5C13.6922 25.5 9.24101 27.3438 5.95913 30.6256C2.67724 33.9075 0.833496 38.3587 0.833496 43C0.833496 43.663 1.09689 44.2989 1.56573 44.7678C2.03457 45.2366 2.67045 45.5 3.3335 45.5H33.3335Z" fill="black"/>
</svg>
