<svg width="102" height="102" viewBox="0 0 102 102" fill="none" xmlns="http://www.w3.org/2000/svg">
<circle cx="51" cy="51" r="50.5" stroke="white"/>
<circle cx="51" cy="51" r="44.5" fill="white" stroke="black"/>
<path d="M24.8661 31.0455C25.9731 31.2885 26.7426 32.274 26.7426 33.489C26.7426 34.9335 25.6626 36 24.2181 36H19.9791V26.685H23.7861C25.1226 26.685 26.1351 27.6705 26.1351 28.9935C26.1351 29.9385 25.5681 30.735 24.8661 31.0455ZM23.6106 27.441H20.7891V30.8025H23.6106C24.5151 30.8025 25.2711 30.0735 25.2711 29.115C25.2711 28.1565 24.5556 27.441 23.6106 27.441ZM24.0426 35.244C25.0956 35.244 25.8921 34.434 25.8921 33.3675C25.8921 32.3145 25.0956 31.518 24.0426 31.518H20.7891V35.244H24.0426ZM31.4943 36.162C29.4153 36.162 27.8493 34.6095 27.8493 32.5575C27.8493 30.5055 29.4153 28.953 31.4943 28.953C33.5598 28.953 35.1258 30.5055 35.1258 32.5575C35.1258 34.6095 33.5598 36.162 31.4943 36.162ZM31.4943 35.406C33.1143 35.406 34.3158 34.1775 34.3158 32.5575C34.3158 30.9375 33.1143 29.709 31.4943 29.709C29.8743 29.709 28.6593 30.9375 28.6593 32.5575C28.6593 34.1775 29.8743 35.406 31.4943 35.406ZM40.0109 36.162C37.9319 36.162 36.3659 34.6095 36.3659 32.5575C36.3659 30.5055 37.9319 28.953 40.0109 28.953C42.0764 28.953 43.6424 30.5055 43.6424 32.5575C43.6424 34.6095 42.0764 36.162 40.0109 36.162ZM40.0109 35.406C41.6309 35.406 42.8324 34.1775 42.8324 32.5575C42.8324 30.9375 41.6309 29.709 40.0109 29.709C38.3909 29.709 37.1759 30.9375 37.1759 32.5575C37.1759 34.1775 38.3909 35.406 40.0109 35.406ZM51.2545 35.244H51.5245V36H51.16C50.4175 36 49.756 35.6085 49.189 34.8795L47.407 32.868L46.138 33.9885V36H45.355V26.28H46.138V33.0435L50.2825 29.115H51.3085L47.974 32.328L49.918 34.488C50.323 34.9605 50.836 35.244 51.2545 35.244ZM61.4424 29.115H62.2254V35.73C62.2254 37.539 60.8754 38.727 59.1339 38.727C57.7164 38.727 56.6634 37.9305 56.2179 36.6345H57.0279C57.4059 37.485 58.1619 37.998 59.1204 37.998C60.4029 37.998 61.4424 37.0935 61.4424 35.7165V34.6365C60.9564 35.5545 60.0519 36.081 58.8909 36.081C57.2304 36.081 56.1234 34.9875 56.1234 33.3135V29.115H56.9064V33.0975C56.9064 34.4475 57.7839 35.325 59.1204 35.325C60.5109 35.325 61.4424 34.434 61.4424 33.0705V29.115ZM67.525 36.162C65.446 36.162 63.88 34.6095 63.88 32.5575C63.88 30.5055 65.446 28.953 67.525 28.953C69.5905 28.953 71.1565 30.5055 71.1565 32.5575C71.1565 34.6095 69.5905 36.162 67.525 36.162ZM67.525 35.406C69.145 35.406 70.3465 34.1775 70.3465 32.5575C70.3465 30.9375 69.145 29.709 67.525 29.709C65.905 29.709 64.69 30.9375 64.69 32.5575C64.69 34.1775 65.905 35.406 67.525 35.406ZM79.6056 35.244H79.7271V36H79.4571C78.6066 36 78.1071 35.5275 78.0801 34.7175C77.5941 35.6355 76.6896 36.162 75.5286 36.162C73.8681 36.162 72.7611 35.0685 72.7611 33.3945V29.115H73.5441V33.1785C73.5441 34.515 74.4216 35.406 75.7581 35.406C77.1486 35.406 78.0801 34.5015 78.0801 33.1515V29.115H78.8631V34.488C78.8631 34.947 79.1466 35.244 79.6056 35.244ZM81.8385 30.627C82.3515 29.6145 83.2965 29.007 84.5115 29.007V29.817C82.878 29.817 81.8385 30.843 81.8385 32.436V36H81.0555V29.115H81.8385V30.627ZM40.7641 54.162C38.9821 54.162 37.6186 52.9875 37.6186 51.4485H38.4691C38.4691 52.5555 39.4816 53.406 40.7776 53.406C42.0466 53.406 43.0321 52.65 43.0321 51.597C43.0321 50.625 42.1681 49.977 40.5751 49.626C38.8741 49.2615 37.7941 48.411 37.7941 47.0475C37.7941 45.576 39.0766 44.523 40.7506 44.523C42.4381 44.523 43.7206 45.6435 43.7206 47.1285H42.8701C42.8701 46.0755 41.9521 45.279 40.7506 45.279C39.5761 45.279 38.6581 45.9945 38.6581 46.9935C38.6581 47.9115 39.4546 48.5595 40.9531 48.8835C42.7081 49.275 43.8961 50.085 43.8961 51.5295C43.8961 53.0685 42.5326 54.162 40.7641 54.162ZM49.2379 47.8305H47.2264V51.9615C47.2264 52.758 47.7529 53.271 48.5764 53.271H49.2379V54H48.4684C47.1994 54 46.4434 53.271 46.4434 52.083V47.8305H45.0934V47.115H45.9979C46.3084 47.115 46.4704 46.9395 46.4704 46.6425V45.1575H47.2264V47.115H49.2379V47.8305ZM58.1617 53.244H58.2697V54H58.0132C57.1357 54 56.6227 53.5005 56.6227 52.65V52.353C56.0557 53.4465 54.9757 54.162 53.6527 54.162C51.6547 54.162 50.1562 52.6095 50.1562 50.5575C50.1562 48.5055 51.6547 46.953 53.6527 46.953C54.9757 46.953 56.0557 47.6685 56.6227 48.762V47.115H57.4057V52.488C57.4057 52.947 57.7027 53.244 58.1617 53.244ZM53.7877 53.406C55.4077 53.406 56.6227 52.1775 56.6227 50.5575C56.6227 48.9375 55.4077 47.709 53.7877 47.709C52.1812 47.709 50.9662 48.9375 50.9662 50.5575C50.9662 52.1775 52.1812 53.406 53.7877 53.406ZM64.9493 47.115H65.7323V53.73C65.7323 55.539 64.3823 56.727 62.6408 56.727C61.2233 56.727 60.1703 55.9305 59.7248 54.6345H60.5348C60.9128 55.485 61.6688 55.998 62.6273 55.998C63.9098 55.998 64.9493 55.0935 64.9493 53.7165V52.6365C64.4633 53.5545 63.5588 54.081 62.3978 54.081C60.7373 54.081 59.6303 52.9875 59.6303 51.3135V47.115H60.4133V51.0975C60.4133 52.4475 61.2908 53.325 62.6273 53.325C64.0178 53.325 64.9493 52.434 64.9493 51.0705V47.115Z" fill="black"/>
<path d="M56.9293 78.495C57.2027 78.534 57.4559 78.3441 57.495 78.0707L58.1314 73.6159C58.1704 73.3426 57.9805 73.0893 57.7071 73.0503C57.4337 73.0112 57.1805 73.2011 57.1414 73.4745L56.5757 77.4343L52.6159 76.8686C52.3426 76.8296 52.0893 77.0195 52.0503 77.2929C52.0112 77.5663 52.2011 77.8195 52.4745 77.8586L56.9293 78.495ZM47.6 66.3L56.6 78.3L57.4 77.7L48.4 65.7L47.6 66.3Z" fill="black"/>
</svg>
