<svg width="41" height="50" viewBox="0 0 41 50" fill="none" xmlns="http://www.w3.org/2000/svg">
<path d="M40.0165 13.3255L28.9165 0.82545C28.6828 0.566469 28.3974 0.359274 28.0788 0.217189C27.7602 0.0751036 27.4154 0.00127451 27.0665 0.00044994H7.0665C6.23588 -0.00945779 5.41143 0.14435 4.64025 0.453091C3.86908 0.761831 3.16627 1.21946 2.57196 1.79983C1.97765 2.38021 1.50349 3.07197 1.17655 3.83562C0.849609 4.59926 0.676295 5.41982 0.666504 6.25045V43.7505C0.676295 44.5811 0.849609 45.4016 1.17655 46.1653C1.50349 46.9289 1.97765 47.6207 2.57196 48.2011C3.16627 48.7814 3.86908 49.2391 4.64025 49.5478C5.41143 49.8566 6.23588 50.0104 7.0665 50.0005H34.2665C35.0971 50.0104 35.9216 49.8566 36.6928 49.5478C37.4639 49.2391 38.1667 48.7814 38.761 48.2011C39.3554 47.6207 39.8295 46.9289 40.1565 46.1653C40.4834 45.4016 40.6567 44.5811 40.6665 43.7505V15.0005C40.6649 14.3809 40.4332 13.7839 40.0165 13.3255ZM13.1665 25.0005H20.6665C21.3295 25.0005 21.9654 25.2638 22.4343 25.7327C22.9031 26.2015 23.1665 26.8374 23.1665 27.5005C23.1665 28.1635 22.9031 28.7994 22.4343 29.2682C21.9654 29.7371 21.3295 30.0005 20.6665 30.0005H13.1665C12.5035 30.0005 11.8676 29.7371 11.3987 29.2682C10.9299 28.7994 10.6665 28.1635 10.6665 27.5005C10.6665 26.8374 10.9299 26.2015 11.3987 25.7327C11.8676 25.2638 12.5035 25.0005 13.1665 25.0005ZM28.1665 40.0005H13.1665C12.5035 40.0005 11.8676 39.7371 11.3987 39.2682C10.9299 38.7994 10.6665 38.1635 10.6665 37.5005C10.6665 36.8374 10.9299 36.2015 11.3987 35.7327C11.8676 35.2638 12.5035 35.0005 13.1665 35.0005H28.1665C28.8295 35.0005 29.4654 35.2638 29.9343 35.7327C30.4031 36.2015 30.6665 36.8374 30.6665 37.5005C30.6665 38.1635 30.4031 38.7994 29.9343 39.2682C29.4654 39.7371 28.8295 40.0005 28.1665 40.0005ZM27.4415 15.0005C26.9261 14.9497 26.4513 14.6985 26.1193 14.3011C25.7873 13.9036 25.6247 13.3916 25.6665 12.8755V5.00045L35.0165 15.0005H27.4415Z" fill="#181A18"/>
</svg>
