<svg width="46" height="46" viewBox="0 0 46 46" fill="none" xmlns="http://www.w3.org/2000/svg">
<path d="M44.275 40.725L35.775 32.25C38.5175 28.7561 40.0055 24.4416 40 20C40 16.0444 38.827 12.1776 36.6294 8.8886C34.4318 5.59962 31.3082 3.03617 27.6537 1.52242C23.9992 0.00866562 19.9778 -0.387401 16.0982 0.384303C12.2186 1.15601 8.65492 3.06082 5.85787 5.85787C3.06082 8.65492 1.15601 12.2186 0.384303 16.0982C-0.387401 19.9778 0.00866562 23.9992 1.52242 27.6537C3.03617 31.3082 5.59962 34.4318 8.8886 36.6294C12.1776 38.827 16.0444 40 20 40C24.4416 40.0055 28.7561 38.5175 32.25 35.775L40.725 44.275C40.9574 44.5093 41.2339 44.6953 41.5386 44.8222C41.8432 44.9492 42.17 45.0145 42.5 45.0145C42.83 45.0145 43.1568 44.9492 43.4615 44.8222C43.7661 44.6953 44.0426 44.5093 44.275 44.275C44.5093 44.0426 44.6953 43.7661 44.8222 43.4615C44.9492 43.1568 45.0145 42.83 45.0145 42.5C45.0145 42.17 44.9492 41.8432 44.8222 41.5386C44.6953 41.2339 44.5093 40.9574 44.275 40.725ZM5.00001 20C5.00001 17.0333 5.87974 14.1332 7.52796 11.6665C9.17619 9.19972 11.5189 7.27713 14.2598 6.14182C17.0007 5.0065 20.0166 4.70945 22.9264 5.28823C25.8361 5.86701 28.5088 7.29562 30.6066 9.39341C32.7044 11.4912 34.133 14.1639 34.7118 17.0737C35.2906 19.9834 34.9935 22.9994 33.8582 25.7403C32.7229 28.4812 30.8003 30.8238 28.3336 32.4721C25.8668 34.1203 22.9667 35 20 35C16.0218 35 12.2065 33.4197 9.39341 30.6066C6.58036 27.7936 5.00001 23.9783 5.00001 20Z" fill="black"/>
</svg>
